# 3ds Max Wavefront OBJ Exporter v0.97b - (c)2007 guruware
# File Created: 10.12.2016 02:28:36

mtllib building_45.mtl

#
# object building_45
#

v  -370.4978 15.0918 119.1833
v  -370.4978 76.5091 119.1833
v  -428.4947 76.5091 119.1833
v  -428.4947 15.0918 119.1833
v  -370.4978 15.0918 52.0363
v  -370.4978 76.5091 52.0363
v  -428.4947 15.0918 52.0362
v  -428.4947 76.5091 52.0362
v  -370.4978 85.6561 119.1833
v  -428.4947 85.6561 119.1833
v  -370.4978 85.6561 52.0363
v  -428.4947 85.6561 52.0362
v  -402.3387 85.6561 103.5267
v  -402.3387 92.8739 103.5267
v  -415.9356 92.8739 103.5267
v  -415.9356 85.6561 103.5267
v  -402.3387 85.6561 80.7796
v  -402.3387 92.8739 80.7796
v  -415.9355 85.6561 80.7796
v  -415.9355 92.8739 80.7796
v  -370.4978 86.6561 119.1833
v  -428.4947 86.6561 119.1833
v  -370.4978 86.6561 52.0363
v  -428.4947 86.6561 52.0362
v  -370.2978 85.6561 119.3833
v  -369.9697 87.7821 119.7114
v  -429.0228 87.7821 119.7114
v  -428.6947 85.6561 119.3833
v  -370.2978 85.6561 51.8363
v  -369.9697 87.7821 51.5082
v  -428.6947 85.6561 51.8362
v  -429.0228 87.7821 51.5082
v  -428.8228 87.7821 119.5114
v  -370.1697 87.7821 119.5114
v  -370.1697 87.7821 51.7082
v  -428.8228 87.7821 51.7082
v  -427.1823 87.7821 117.8710
v  -371.8101 87.7821 117.8710
v  -371.8101 87.7821 53.3486
v  -427.1823 87.7821 53.3486
v  -427.1823 86.2073 117.8710
v  -371.8101 86.2073 117.8710
v  -371.8101 86.2073 53.3486
v  -427.1823 86.2073 53.3486
v  -370.4978 -0.0001 119.1833
v  -428.4947 -0.0001 119.1833
v  -370.4978 -0.0001 52.0363
v  -428.4947 -0.0001 52.0362
# 48 vertices

vn -0.0000 0.0000 1.0000
vn 1.0000 0.0000 0.0000
vn 0.0000 0.0000 -1.0000
vn -1.0000 0.0000 -0.0000
vn 0.0000 1.0000 -0.0000
vn 0.0000 -1.0000 -0.0000
vn -0.0000 -0.1526 0.9883
vn 0.9883 -0.1526 0.0000
vn 0.0000 -0.1526 -0.9883
vn -0.9883 -0.1526 -0.0000
# 10 vertex normals

vt 0.2418 0.2418 0.0000
vt 0.0219 0.2418 0.0000
vt 0.0219 0.0342 0.0000
vt 0.2418 0.0342 0.0000
vt 0.5089 0.2686 0.0000
vt 0.5089 0.4884 0.0000
vt 0.2686 0.4884 0.0000
vt 0.2686 0.2686 0.0000
vt 0.2418 0.4884 0.0000
vt 0.0219 0.4884 0.0000
vt 0.0219 0.2808 0.0000
vt 0.2418 0.2808 0.0000
vt 0.5089 0.0219 0.0000
vt 0.5089 0.2418 0.0000
vt 0.2686 0.2418 0.0000
vt 0.2686 0.0219 0.0000
vt 0.7940 0.3219 0.0000
vt 0.7940 0.3546 0.0000
vt 0.5864 0.3546 0.0000
vt 0.5864 0.3219 0.0000
vt 0.7940 0.4511 0.0000
vt 0.7940 0.4838 0.0000
vt 0.5536 0.4838 0.0000
vt 0.5536 0.4511 0.0000
vt 0.7940 0.3650 0.0000
vt 0.7940 0.3977 0.0000
vt 0.5864 0.3977 0.0000
vt 0.5864 0.3650 0.0000
vt 0.7940 0.4080 0.0000
vt 0.7940 0.4407 0.0000
vt 0.5536 0.4407 0.0000
vt 0.5536 0.4080 0.0000
vt 0.4625 0.8939 0.0000
vt 0.4625 0.9197 0.0000
vt 0.4138 0.9197 0.0000
vt 0.4138 0.8939 0.0000
vt 0.5537 0.8355 0.0000
vt 0.5537 0.8613 0.0000
vt 0.4723 0.8613 0.0000
vt 0.4723 0.8355 0.0000
vt 0.4625 0.9522 0.0000
vt 0.4625 0.9781 0.0000
vt 0.4138 0.9781 0.0000
vt 0.4138 0.9522 0.0000
vt 0.4649 0.8355 0.0000
vt 0.4649 0.8613 0.0000
vt 0.3835 0.8613 0.0000
vt 0.3835 0.8355 0.0000
vt 0.4723 0.9197 0.0000
vt 0.4723 0.8710 0.0000
vt 0.5537 0.8710 0.0000
vt 0.5537 0.9197 0.0000
vt 0.4723 0.9294 0.0000
vt 0.5537 0.9294 0.0000
vt 0.5537 0.9781 0.0000
vt 0.4723 0.9781 0.0000
vt 0.8356 0.2623 0.0000
vt 0.8320 0.2623 0.0000
vt 0.8320 0.0547 0.0000
vt 0.8356 0.0547 0.0000
vt 0.7833 0.2623 0.0000
vt 0.7798 0.2623 0.0000
vt 0.7798 0.0219 0.0000
vt 0.7833 0.0219 0.0000
vt 0.8182 0.2623 0.0000
vt 0.8146 0.2623 0.0000
vt 0.8146 0.0547 0.0000
vt 0.8182 0.0547 0.0000
vt 0.8008 0.2623 0.0000
vt 0.7972 0.2623 0.0000
vt 0.7972 0.0219 0.0000
vt 0.8008 0.0219 0.0000
vt 0.5536 0.0219 0.0000
vt 0.7612 0.0219 0.0000
vt 0.7612 0.2623 0.0000
vt 0.5536 0.2623 0.0000
vt 0.3239 0.7774 0.0000
vt 0.3162 0.7786 0.0000
vt 0.3162 0.5660 0.0000
vt 0.3239 0.5672 0.0000
vt 0.2579 0.7775 0.0000
vt 0.2502 0.7787 0.0000
vt 0.2502 0.5331 0.0000
vt 0.2579 0.5343 0.0000
vt 0.3019 0.7774 0.0000
vt 0.2942 0.7786 0.0000
vt 0.2942 0.5660 0.0000
vt 0.3019 0.5672 0.0000
vt 0.2799 0.7775 0.0000
vt 0.2722 0.7787 0.0000
vt 0.2722 0.5331 0.0000
vt 0.2799 0.5343 0.0000
vt 0.2309 0.5362 0.0000
vt 0.2309 0.7780 0.0000
vt 0.0219 0.7780 0.0000
vt 0.0219 0.5362 0.0000
vt 0.3835 0.7758 0.0000
vt 0.5935 0.7758 0.0000
vt 0.5935 0.5331 0.0000
vt 0.3835 0.5331 0.0000
vt 0.3894 0.7700 0.0000
vt 0.5876 0.7700 0.0000
vt 0.5876 0.5390 0.0000
vt 0.3894 0.5390 0.0000
vt 0.5646 0.7610 0.0000
vt 0.5646 0.5628 0.0000
vt 0.5703 0.5628 0.0000
vt 0.5703 0.7610 0.0000
vt 0.6181 0.5449 0.0000
vt 0.6181 0.7758 0.0000
vt 0.6124 0.7758 0.0000
vt 0.6124 0.5449 0.0000
vt 0.5750 0.7610 0.0000
vt 0.5750 0.5628 0.0000
vt 0.5806 0.5628 0.0000
vt 0.5806 0.7610 0.0000
vt 0.6379 0.5449 0.0000
vt 0.6379 0.7758 0.0000
vt 0.6323 0.7758 0.0000
vt 0.6323 0.5449 0.0000
vt 0.9533 0.7735 0.0000
vt 0.8993 0.7735 0.0000
vt 0.8993 0.5659 0.0000
vt 0.9533 0.5659 0.0000
vt 0.7515 0.7735 0.0000
vt 0.6975 0.7735 0.0000
vt 0.6975 0.5331 0.0000
vt 0.7515 0.5331 0.0000
vt 0.8861 0.7735 0.0000
vt 0.8321 0.7735 0.0000
vt 0.8321 0.5659 0.0000
vt 0.8861 0.5659 0.0000
vt 0.8188 0.7735 0.0000
vt 0.7648 0.7735 0.0000
vt 0.7648 0.5331 0.0000
vt 0.8188 0.5331 0.0000
# 136 texture coords

g building_45
usemtl 02___Default
s off
f 1/1/1 2/2/1 3/3/1 
f 3/3/1 4/4/1 1/1/1 
f 5/5/2 6/6/2 2/7/2 
f 2/7/2 1/8/2 5/5/2 
f 7/9/3 8/10/3 6/11/3 
f 6/11/3 5/12/3 7/9/3 
f 4/13/4 3/14/4 8/15/4 
f 8/15/4 7/16/4 4/13/4 
f 2/17/1 9/18/1 10/19/1 
f 10/19/1 3/20/1 2/17/1 
f 6/21/2 11/22/2 9/23/2 
f 9/23/2 2/24/2 6/21/2 
f 8/25/3 12/26/3 11/27/3 
f 11/27/3 6/28/3 8/25/3 
f 3/29/4 10/30/4 12/31/4 
f 12/31/4 8/32/4 3/29/4 
f 13/33/1 14/34/1 15/35/1 
f 15/35/1 16/36/1 13/33/1 
f 17/37/2 18/38/2 14/39/2 
f 14/39/2 13/40/2 17/37/2 
f 19/41/3 20/42/3 18/43/3 
f 18/43/3 17/44/3 19/41/3 
f 16/45/4 15/46/4 20/47/4 
f 20/47/4 19/48/4 16/45/4 
f 15/49/5 14/50/5 18/51/5 
f 18/51/5 20/52/5 15/49/5 
f 17/53/6 13/54/6 16/55/6 
f 16/55/6 19/56/6 17/53/6 
f 9/57/1 21/58/1 22/59/1 
f 22/59/1 10/60/1 9/57/1 
f 11/61/2 23/62/2 21/63/2 
f 21/63/2 9/64/2 11/61/2 
f 12/65/3 24/66/3 23/67/3 
f 23/67/3 11/68/3 12/65/3 
f 10/69/4 22/70/4 24/71/4 
f 24/71/4 12/72/4 10/69/4 
f 22/73/5 21/74/5 23/75/5 
f 23/75/5 24/76/5 22/73/5 
f 25/77/7 26/78/7 27/79/7 
f 27/79/7 28/80/7 25/77/7 
f 29/81/8 30/82/8 26/83/8 
f 26/83/8 25/84/8 29/81/8 
f 31/85/9 32/86/9 30/87/9 
f 30/87/9 29/88/9 31/85/9 
f 28/89/10 27/90/10 32/91/10 
f 32/91/10 31/92/10 28/89/10 
f 29/93/6 25/94/6 28/95/6 
f 28/95/6 31/96/6 29/93/6 
f 33/97/4 34/98/4 34/98/4 
f 34/98/4 33/97/4 33/97/4 
f 34/98/4 35/99/4 35/99/4 
f 35/99/4 34/98/4 34/98/4 
f 35/99/4 36/100/4 36/100/4 
f 36/100/4 35/99/4 35/99/4 
f 36/100/4 33/97/4 33/97/4 
f 33/97/4 36/100/4 36/100/4 
f 37/101/6 38/102/6 34/98/6 
f 34/98/6 33/97/6 37/101/6 
f 38/102/6 39/103/6 35/99/6 
f 35/99/6 34/98/6 38/102/6 
f 39/103/6 40/104/6 36/100/6 
f 36/100/6 35/99/6 39/103/6 
f 40/104/6 37/101/6 33/97/6 
f 33/97/6 36/100/6 40/104/6 
f 41/105/1 42/106/1 38/107/1 
f 38/107/1 37/108/1 41/105/1 
f 42/109/2 43/110/2 39/111/2 
f 39/111/2 38/112/2 42/109/2 
f 43/113/3 44/114/3 40/115/3 
f 40/115/3 39/116/3 43/113/3 
f 44/117/4 41/118/4 37/119/4 
f 37/119/4 40/120/4 44/117/4 
f 45/121/1 1/122/1 4/123/1 
f 4/123/1 46/124/1 45/121/1 
f 47/125/2 5/126/2 1/127/2 
f 1/127/2 45/128/2 47/125/2 
f 48/129/3 7/130/3 5/131/3 
f 5/131/3 47/132/3 48/129/3 
f 46/133/4 4/134/4 7/135/4 
f 7/135/4 48/136/4 46/133/4 
# 80 faces

