# 3ds Max Wavefront OBJ Exporter v0.97b - (c)2007 guruware
# File Created: 10.12.2016 02:28:26

mtllib building_14.mtl

#
# object building_14
#

v  132.5179 29.5276 158.1447
v  132.5179 204.0683 158.1447
v  83.4008 204.0683 158.1447
v  83.4008 29.5276 158.1447
v  132.5179 29.5276 59.7063
v  132.5179 204.0683 59.7063
v  60.3791 29.5276 59.7063
v  60.3791 204.0683 59.7063
v  60.3791 29.5276 109.1299
v  60.3791 204.0683 109.1299
v  83.4008 29.5276 109.1299
v  83.4008 204.0683 109.1299
v  116.4837 204.0683 93.5284
v  116.4837 216.8683 93.5284
v  91.6020 216.8683 93.5284
v  91.6020 204.0683 93.5284
v  116.4837 204.0683 68.6235
v  116.4837 216.8683 68.6235
v  91.6020 204.0683 68.6235
v  91.6020 216.8683 68.6235
v  132.5179 210.0683 158.1447
v  83.4008 210.0683 158.1447
v  132.5179 210.0683 59.7063
v  60.3791 210.0683 59.7063
v  60.3791 210.0683 109.1299
v  83.4008 210.0683 109.1299
v  133.3179 204.0683 158.9447
v  133.3179 213.9108 158.9447
v  82.6008 213.9108 158.9447
v  82.6008 204.0683 158.9447
v  133.3179 204.0683 58.9063
v  133.3179 213.9108 58.9063
v  59.5791 204.0683 58.9063
v  59.5791 213.9108 58.9063
v  59.5791 204.0683 109.9299
v  59.5791 213.9108 109.9299
v  82.6008 204.0683 109.9299
v  82.6008 213.9108 109.9299
v  131.3179 213.9108 156.9447
v  84.6008 213.9108 156.9447
v  131.3179 213.9108 60.9063
v  61.5791 213.9108 60.9063
v  61.5791 213.9108 107.9299
v  84.6008 213.9108 107.9299
v  131.3179 210.5108 156.9447
v  84.6008 210.5108 156.9447
v  131.3179 210.5108 60.9063
v  61.5791 210.5108 60.9063
v  61.5791 210.5108 107.9299
v  84.6008 210.5108 107.9299
v  132.5179 0.0000 158.1447
v  83.4008 0.0000 158.1447
v  132.5179 0.0000 59.7063
v  60.3791 0.0000 59.7063
v  60.3791 0.0000 109.1299
v  83.4008 0.0000 109.1299
# 56 vertices

vn -0.0000 0.0000 1.0000
vn 1.0000 0.0000 0.0000
vn 0.0000 0.0000 -1.0000
vn -1.0000 0.0000 -0.0000
vn 0.0000 1.0000 -0.0000
vn 0.0000 -1.0000 -0.0000
# 6 vertex normals

vt 0.6387 0.2704 0.0000
vt 0.3565 0.2704 0.0000
vt 0.3565 0.1910 0.0000
vt 0.6387 0.1910 0.0000
vt 0.6387 0.6164 0.0000
vt 0.3565 0.6164 0.0000
vt 0.3565 0.4572 0.0000
vt 0.6387 0.4572 0.0000
vt 0.6387 0.4221 0.0000
vt 0.3565 0.4221 0.0000
vt 0.3565 0.3055 0.0000
vt 0.6387 0.3055 0.0000
vt 0.3214 0.6164 0.0000
vt 0.0392 0.6164 0.0000
vt 0.0392 0.5365 0.0000
vt 0.3214 0.5365 0.0000
vt 0.3214 0.5014 0.0000
vt 0.0392 0.5014 0.0000
vt 0.0392 0.4641 0.0000
vt 0.3214 0.4641 0.0000
vt 0.3214 0.4221 0.0000
vt 0.0392 0.4221 0.0000
vt 0.0392 0.3429 0.0000
vt 0.3214 0.3429 0.0000
vt 0.3645 0.1186 0.0000
vt 0.2853 0.1186 0.0000
vt 0.2853 0.0392 0.0000
vt 0.4444 0.0392 0.0000
vt 0.4444 0.1558 0.0000
vt 0.3645 0.1558 0.0000
vt 0.5595 0.1186 0.0000
vt 0.5595 0.1558 0.0000
vt 0.4796 0.1558 0.0000
vt 0.4796 0.0392 0.0000
vt 0.6387 0.0392 0.0000
vt 0.6387 0.1186 0.0000
vt 0.6246 0.7569 0.0000
vt 0.6246 0.7362 0.0000
vt 0.6648 0.7362 0.0000
vt 0.6648 0.7569 0.0000
vt 0.5801 0.7569 0.0000
vt 0.5801 0.7362 0.0000
vt 0.6204 0.7362 0.0000
vt 0.6204 0.7569 0.0000
vt 0.5801 0.7818 0.0000
vt 0.5801 0.7611 0.0000
vt 0.6203 0.7611 0.0000
vt 0.6203 0.7818 0.0000
vt 0.6260 0.7110 0.0000
vt 0.6260 0.6903 0.0000
vt 0.6663 0.6903 0.0000
vt 0.6663 0.7110 0.0000
vt 0.6204 0.6903 0.0000
vt 0.6204 0.7305 0.0000
vt 0.5801 0.7305 0.0000
vt 0.5801 0.6903 0.0000
vt 0.2699 0.3261 0.0000
vt 0.2602 0.3261 0.0000
vt 0.2602 0.2467 0.0000
vt 0.2699 0.2467 0.0000
vt 0.2130 0.3261 0.0000
vt 0.2033 0.3261 0.0000
vt 0.2033 0.1670 0.0000
vt 0.2130 0.1670 0.0000
vt 0.2320 0.3261 0.0000
vt 0.2223 0.3261 0.0000
vt 0.2223 0.2095 0.0000
vt 0.2320 0.2095 0.0000
vt 0.2509 0.3261 0.0000
vt 0.2412 0.3261 0.0000
vt 0.2412 0.2462 0.0000
vt 0.2509 0.2462 0.0000
vt 0.2320 0.2002 0.0000
vt 0.2223 0.2002 0.0000
vt 0.2223 0.1630 0.0000
vt 0.2320 0.1630 0.0000
vt 0.2509 0.2370 0.0000
vt 0.2412 0.2370 0.0000
vt 0.2412 0.1577 0.0000
vt 0.2509 0.1577 0.0000
vt 0.1115 0.2462 0.0000
vt 0.1115 0.1670 0.0000
vt 0.1909 0.1670 0.0000
vt 0.1909 0.3261 0.0000
vt 0.0743 0.3261 0.0000
vt 0.0743 0.2462 0.0000
vt 0.5158 0.8156 0.0000
vt 0.5317 0.8156 0.0000
vt 0.5317 0.8976 0.0000
vt 0.5158 0.8976 0.0000
vt 0.7114 0.9608 0.0000
vt 0.6955 0.9608 0.0000
vt 0.6955 0.7991 0.0000
vt 0.7114 0.7991 0.0000
vt 0.4371 0.7811 0.0000
vt 0.4211 0.7811 0.0000
vt 0.4211 0.6619 0.0000
vt 0.4371 0.6619 0.0000
vt 0.4492 0.9525 0.0000
vt 0.4492 0.9366 0.0000
vt 0.5317 0.9366 0.0000
vt 0.5317 0.9525 0.0000
vt 0.4378 0.8355 0.0000
vt 0.4538 0.8355 0.0000
vt 0.4538 0.8727 0.0000
vt 0.4378 0.8727 0.0000
vt 0.4525 0.9321 0.0000
vt 0.4525 0.9162 0.0000
vt 0.5317 0.9162 0.0000
vt 0.5317 0.9321 0.0000
vt 0.5404 0.7991 0.0000
vt 0.5371 0.8023 0.0000
vt 0.4616 0.8023 0.0000
vt 0.4584 0.7991 0.0000
vt 0.5404 0.9608 0.0000
vt 0.5371 0.9576 0.0000
vt 0.4211 0.9608 0.0000
vt 0.4244 0.9576 0.0000
vt 0.4211 0.8783 0.0000
vt 0.4244 0.8815 0.0000
vt 0.4584 0.8783 0.0000
vt 0.4616 0.8815 0.0000
vt 0.4505 0.7056 0.0000
vt 0.4560 0.7056 0.0000
vt 0.4560 0.7811 0.0000
vt 0.4505 0.7811 0.0000
vt 0.7249 0.8055 0.0000
vt 0.7304 0.8055 0.0000
vt 0.7304 0.9608 0.0000
vt 0.7249 0.9608 0.0000
vt 0.5583 0.6683 0.0000
vt 0.5638 0.6683 0.0000
vt 0.5638 0.7811 0.0000
vt 0.5583 0.7811 0.0000
vt 0.5317 0.9062 0.0000
vt 0.5317 0.9117 0.0000
vt 0.4557 0.9117 0.0000
vt 0.4557 0.9062 0.0000
vt 0.4933 0.8561 0.0000
vt 0.4878 0.8561 0.0000
vt 0.4878 0.8189 0.0000
vt 0.4933 0.8189 0.0000
vt 0.5113 0.8976 0.0000
vt 0.5058 0.8976 0.0000
vt 0.5058 0.8184 0.0000
vt 0.5113 0.8184 0.0000
vt 0.5955 0.8816 0.0000
vt 0.5583 0.8816 0.0000
vt 0.5583 0.7991 0.0000
vt 0.6775 0.7991 0.0000
vt 0.6775 0.9608 0.0000
vt 0.5955 0.9608 0.0000
vt 0.1498 0.7785 0.0000
vt 0.1021 0.7785 0.0000
vt 0.1021 0.6991 0.0000
vt 0.1498 0.6991 0.0000
vt 0.3605 0.9578 0.0000
vt 0.3128 0.9578 0.0000
vt 0.3128 0.7987 0.0000
vt 0.3605 0.7987 0.0000
vt 0.0869 0.7785 0.0000
vt 0.0392 0.7785 0.0000
vt 0.0392 0.6619 0.0000
vt 0.0869 0.6619 0.0000
vt 0.2237 0.7785 0.0000
vt 0.1760 0.7785 0.0000
vt 0.1760 0.6986 0.0000
vt 0.2237 0.6986 0.0000
vt 0.3017 0.7785 0.0000
vt 0.3017 0.7308 0.0000
vt 0.3389 0.7308 0.0000
vt 0.3389 0.7785 0.0000
vt 0.2866 0.7785 0.0000
vt 0.2388 0.7785 0.0000
vt 0.2388 0.6993 0.0000
vt 0.2866 0.6993 0.0000
vt 0.2132 0.8779 0.0000
vt 0.2132 0.7987 0.0000
vt 0.2926 0.7987 0.0000
vt 0.2926 0.9578 0.0000
vt 0.1760 0.9578 0.0000
vt 0.1760 0.8779 0.0000
vt 0.0764 0.8786 0.0000
vt 0.0392 0.8786 0.0000
vt 0.0392 0.7987 0.0000
vt 0.1558 0.7987 0.0000
vt 0.1558 0.9578 0.0000
vt 0.0764 0.9578 0.0000
# 188 texture coords

g building_14
usemtl 14___Default
s off
f 1/1/1 2/2/1 3/3/1 
f 3/3/1 4/4/1 1/1/1 
f 5/5/2 6/6/2 2/7/2 
f 2/7/2 1/8/2 5/5/2 
f 7/9/3 8/10/3 6/11/3 
f 6/11/3 5/12/3 7/9/3 
f 9/13/4 10/14/4 8/15/4 
f 8/15/4 7/16/4 9/13/4 
f 11/17/1 12/18/1 10/19/1 
f 10/19/1 9/20/1 11/17/1 
f 4/21/4 3/22/4 12/23/4 
f 12/23/4 11/24/4 4/21/4 
f 12/25/5 3/26/5 2/27/5 
f 12/25/5 2/27/5 6/28/5 
f 12/25/5 6/28/5 8/29/5 
f 12/25/5 8/29/5 10/30/5 
f 11/31/6 9/32/6 7/33/6 
f 11/31/6 7/33/6 5/34/6 
f 11/31/6 5/34/6 1/35/6 
f 11/31/6 1/35/6 4/36/6 
f 13/37/1 14/38/1 15/39/1 
f 15/39/1 16/40/1 13/37/1 
f 17/41/2 18/42/2 14/43/2 
f 14/43/2 13/44/2 17/41/2 
f 19/45/3 20/46/3 18/47/3 
f 18/47/3 17/48/3 19/45/3 
f 16/49/4 15/50/4 20/51/4 
f 20/51/4 19/52/4 16/49/4 
f 15/53/5 14/54/5 18/55/5 
f 18/55/5 20/56/5 15/53/5 
f 2/57/1 21/58/1 22/59/1 
f 22/59/1 3/60/1 2/57/1 
f 6/61/2 23/62/2 21/63/2 
f 21/63/2 2/64/2 6/61/2 
f 8/65/3 24/66/3 23/67/3 
f 23/67/3 6/68/3 8/65/3 
f 10/69/4 25/70/4 24/71/4 
f 24/71/4 8/72/4 10/69/4 
f 12/73/1 26/74/1 25/75/1 
f 25/75/1 10/76/1 12/73/1 
f 3/77/4 22/78/4 26/79/4 
f 26/79/4 12/80/4 3/77/4 
f 26/81/5 22/82/5 21/83/5 
f 26/81/5 21/83/5 23/84/5 
f 26/81/5 23/84/5 24/85/5 
f 26/81/5 24/85/5 25/86/5 
f 27/87/1 28/88/1 29/89/1 
f 29/89/1 30/90/1 27/87/1 
f 31/91/2 32/92/2 28/93/2 
f 28/93/2 27/94/2 31/91/2 
f 33/95/3 34/96/3 32/97/3 
f 32/97/3 31/98/3 33/95/3 
f 35/99/4 36/100/4 34/101/4 
f 34/101/4 33/102/4 35/99/4 
f 37/103/1 38/104/1 36/105/1 
f 36/105/1 35/106/1 37/103/1 
f 30/107/4 29/108/4 38/109/4 
f 38/109/4 37/110/4 30/107/4 
f 28/111/5 39/112/5 40/113/5 
f 40/113/5 29/114/5 28/111/5 
f 32/115/5 41/116/5 39/112/5 
f 39/112/5 28/111/5 32/115/5 
f 34/117/5 42/118/5 41/116/5 
f 41/116/5 32/115/5 34/117/5 
f 36/119/5 43/120/5 42/118/5 
f 42/118/5 34/117/5 36/119/5 
f 38/121/5 44/122/5 43/120/5 
f 43/120/5 36/119/5 38/121/5 
f 29/114/5 40/113/5 44/122/5 
f 44/122/5 38/121/5 29/114/5 
f 39/123/3 45/124/3 46/125/3 
f 46/125/3 40/126/3 39/123/3 
f 41/127/4 47/128/4 45/129/4 
f 45/129/4 39/130/4 41/127/4 
f 42/131/1 48/132/1 47/133/1 
f 47/133/1 41/134/1 42/131/1 
f 43/135/2 49/136/2 48/137/2 
f 48/137/2 42/138/2 43/135/2 
f 44/139/3 50/140/3 49/141/3 
f 49/141/3 43/142/3 44/139/3 
f 40/143/2 46/144/2 50/145/2 
f 50/145/2 44/146/2 40/143/2 
f 37/147/6 35/148/6 33/149/6 
f 37/147/6 33/149/6 31/150/6 
f 37/147/6 31/150/6 27/151/6 
f 37/147/6 27/151/6 30/152/6 
f 51/153/1 1/154/1 4/155/1 
f 4/155/1 52/156/1 51/153/1 
f 53/157/2 5/158/2 1/159/2 
f 1/159/2 51/160/2 53/157/2 
f 54/161/3 7/162/3 5/163/3 
f 5/163/3 53/164/3 54/161/3 
f 55/165/4 9/166/4 7/167/4 
f 7/167/4 54/168/4 55/165/4 
f 56/169/1 11/170/1 9/171/1 
f 9/171/1 55/172/1 56/169/1 
f 52/173/4 4/174/4 11/175/4 
f 11/175/4 56/176/4 52/173/4 
f 11/177/5 4/178/5 1/179/5 
f 11/177/5 1/179/5 5/180/5 
f 11/177/5 5/180/5 7/181/5 
f 11/177/5 7/181/5 9/182/5 
f 56/183/6 55/184/6 54/185/6 
f 56/183/6 54/185/6 53/186/6 
f 56/183/6 53/186/6 51/187/6 
f 56/183/6 51/187/6 52/188/6 
# 106 faces

