# 3ds Max Wavefront OBJ Exporter v0.97b - (c)2007 guruware
# File Created: 10.12.2016 02:28:37

mtllib building_34.mtl

#
# object building_34
#

v  -163.6424 15.0919 44.3075
v  -163.6424 56.0367 44.3075
v  -163.6424 56.0367 83.9834
v  -163.6424 15.0919 83.9834
v  -222.0402 15.0919 44.3075
v  -222.0402 56.0367 44.3075
v  -222.0402 15.0919 103.7660
v  -222.0402 56.0367 103.7660
v  -192.8086 15.0919 103.7660
v  -192.8086 56.0367 103.7660
v  -192.8086 15.0919 83.9834
v  -192.8086 56.0367 83.9834
v  -163.6424 65.1837 44.3075
v  -163.6424 65.1837 83.9834
v  -222.0402 65.1837 44.3075
v  -222.0402 65.1837 103.7660
v  -192.8086 65.1837 103.7660
v  -192.8086 65.1837 83.9834
v  -200.3696 65.1837 59.0670
v  -200.3696 72.4016 59.0670
v  -200.3696 72.4016 78.2639
v  -200.3696 65.1837 78.2639
v  -218.4983 65.1837 59.0670
v  -218.4983 72.4016 59.0670
v  -218.4983 65.1837 78.2639
v  -218.4983 72.4016 78.2639
v  -163.6424 66.1837 44.3075
v  -163.6424 66.1837 83.9834
v  -222.0402 66.1837 44.3075
v  -222.0402 66.1837 103.7660
v  -192.8086 66.1837 103.7660
v  -192.8086 66.1837 83.9834
v  -163.4424 65.1837 44.1075
v  -163.1143 67.3097 43.7794
v  -163.1143 67.3097 84.5115
v  -163.4424 65.1837 84.1834
v  -222.2402 65.1837 44.1075
v  -222.5683 67.3097 43.7794
v  -222.2402 65.1837 103.9660
v  -222.5683 67.3097 104.2940
v  -192.6086 65.1837 103.9660
v  -192.2805 67.3097 104.2941
v  -192.6086 65.1837 84.1834
v  -192.2805 67.3097 84.5115
v  -163.3144 67.3097 84.3115
v  -163.3143 67.3097 43.9794
v  -222.3683 67.3097 43.9794
v  -222.3683 67.3097 104.0940
v  -192.4805 67.3097 104.0940
v  -192.4805 67.3097 84.3115
v  -164.9548 67.3097 82.6710
v  -164.9548 67.3097 45.6198
v  -220.7278 67.3097 45.6198
v  -220.7279 67.3097 102.4536
v  -194.1209 67.3097 102.4536
v  -194.1209 67.3097 82.6710
v  -164.9548 65.7349 82.6710
v  -164.9548 65.7349 45.6198
v  -220.7278 65.7349 45.6198
v  -220.7279 65.7349 102.4536
v  -194.1209 65.7349 102.4536
v  -194.1209 65.7349 82.6710
v  -163.6424 0.0000 44.3075
v  -163.6424 0.0000 83.9834
v  -222.0402 0.0000 44.3075
v  -222.0402 0.0000 103.7660
v  -192.8086 0.0000 103.7660
v  -192.8086 0.0000 83.9834
# 68 vertices

vn 1.0000 0.0000 0.0000
vn 0.0000 0.0000 -1.0000
vn -1.0000 0.0000 -0.0000
vn -0.0000 0.0000 1.0000
vn 0.0000 1.0000 -0.0000
vn 0.0000 -1.0000 -0.0000
vn 0.9883 -0.1526 0.0000
vn 0.0000 -0.1526 -0.9883
vn -0.9883 -0.1526 -0.0000
vn -0.0000 -0.1526 0.9883
# 10 vertex normals

vt 0.2047 0.1875 0.0000
vt 0.2047 0.0429 0.0000
vt 0.3448 0.0429 0.0000
vt 0.3448 0.1875 0.0000
vt 0.3493 0.4147 0.0000
vt 0.2047 0.4147 0.0000
vt 0.2047 0.2085 0.0000
vt 0.3493 0.2085 0.0000
vt 0.1838 0.4147 0.0000
vt 0.0392 0.4147 0.0000
vt 0.0392 0.2047 0.0000
vt 0.1838 0.2047 0.0000
vt 0.0392 0.1838 0.0000
vt 0.0392 0.0392 0.0000
vt 0.1424 0.0392 0.0000
vt 0.1424 0.1838 0.0000
vt 0.3726 0.1875 0.0000
vt 0.3726 0.0429 0.0000
vt 0.4425 0.0429 0.0000
vt 0.4425 0.1875 0.0000
vt 0.3702 0.4147 0.0000
vt 0.3702 0.2701 0.0000
vt 0.4732 0.2701 0.0000
vt 0.4732 0.4147 0.0000
vt 0.9169 0.5546 0.0000
vt 0.9169 0.5869 0.0000
vt 0.7768 0.5869 0.0000
vt 0.7768 0.5546 0.0000
vt 0.9169 0.5968 0.0000
vt 0.9169 0.6291 0.0000
vt 0.7107 0.6291 0.0000
vt 0.7107 0.5968 0.0000
vt 0.9169 0.6389 0.0000
vt 0.9169 0.6712 0.0000
vt 0.7070 0.6712 0.0000
vt 0.7070 0.6389 0.0000
vt 0.9169 0.5124 0.0000
vt 0.9169 0.5447 0.0000
vt 0.8137 0.5447 0.0000
vt 0.8137 0.5124 0.0000
vt 0.8038 0.5124 0.0000
vt 0.8038 0.5447 0.0000
vt 0.7340 0.5447 0.0000
vt 0.7340 0.5124 0.0000
vt 0.9169 0.4703 0.0000
vt 0.9169 0.5026 0.0000
vt 0.8140 0.5026 0.0000
vt 0.8140 0.4703 0.0000
vt 0.1070 0.8268 0.0000
vt 0.1070 0.8523 0.0000
vt 0.0392 0.8523 0.0000
vt 0.0392 0.8268 0.0000
vt 0.1070 0.8654 0.0000
vt 0.1070 0.8908 0.0000
vt 0.0430 0.8908 0.0000
vt 0.0430 0.8654 0.0000
vt 0.1070 0.8983 0.0000
vt 0.1070 0.9238 0.0000
vt 0.0392 0.9238 0.0000
vt 0.0392 0.8983 0.0000
vt 0.1070 0.7939 0.0000
vt 0.1070 0.8193 0.0000
vt 0.0430 0.8193 0.0000
vt 0.0430 0.7939 0.0000
vt 0.1823 0.9238 0.0000
vt 0.1145 0.9238 0.0000
vt 0.1145 0.8598 0.0000
vt 0.1823 0.8598 0.0000
vt 0.1145 0.8523 0.0000
vt 0.1145 0.7883 0.0000
vt 0.1823 0.7883 0.0000
vt 0.1823 0.8523 0.0000
vt 0.7844 0.2953 0.0000
vt 0.7808 0.2953 0.0000
vt 0.7808 0.1552 0.0000
vt 0.7844 0.1552 0.0000
vt 0.7679 0.2952 0.0000
vt 0.7644 0.2952 0.0000
vt 0.7644 0.0891 0.0000
vt 0.7679 0.0891 0.0000
vt 0.7515 0.2952 0.0000
vt 0.7479 0.2952 0.0000
vt 0.7479 0.0853 0.0000
vt 0.7515 0.0853 0.0000
vt 0.8008 0.2953 0.0000
vt 0.7973 0.2953 0.0000
vt 0.7973 0.1921 0.0000
vt 0.8008 0.1921 0.0000
vt 0.8008 0.1791 0.0000
vt 0.7973 0.1791 0.0000
vt 0.7973 0.1092 0.0000
vt 0.8008 0.1092 0.0000
vt 0.7844 0.1422 0.0000
vt 0.7808 0.1422 0.0000
vt 0.7808 0.0392 0.0000
vt 0.7844 0.0392 0.0000
vt 0.6317 0.2254 0.0000
vt 0.5288 0.2254 0.0000
vt 0.5288 0.0853 0.0000
vt 0.7349 0.0853 0.0000
vt 0.7349 0.2952 0.0000
vt 0.6317 0.2952 0.0000
vt 0.3098 0.7313 0.0000
vt 0.3023 0.7325 0.0000
vt 0.3023 0.5878 0.0000
vt 0.3098 0.5890 0.0000
vt 0.2888 0.7315 0.0000
vt 0.2813 0.7327 0.0000
vt 0.2813 0.5215 0.0000
vt 0.2888 0.5227 0.0000
vt 0.2679 0.7315 0.0000
vt 0.2603 0.7327 0.0000
vt 0.2603 0.5178 0.0000
vt 0.2679 0.5189 0.0000
vt 0.3308 0.7312 0.0000
vt 0.3232 0.7324 0.0000
vt 0.3232 0.6248 0.0000
vt 0.3308 0.6260 0.0000
vt 0.3308 0.6118 0.0000
vt 0.3232 0.6107 0.0000
vt 0.3232 0.5404 0.0000
vt 0.3308 0.5416 0.0000
vt 0.3098 0.5739 0.0000
vt 0.3023 0.5750 0.0000
vt 0.3023 0.4714 0.0000
vt 0.3098 0.4703 0.0000
vt 0.1438 0.6622 0.0000
vt 0.1438 0.7320 0.0000
vt 0.0392 0.7320 0.0000
vt 0.0392 0.5207 0.0000
vt 0.2468 0.5207 0.0000
vt 0.2468 0.6622 0.0000
vt 0.5949 0.6127 0.0000
vt 0.5949 0.4703 0.0000
vt 0.3864 0.4703 0.0000
vt 0.3864 0.6825 0.0000
vt 0.4919 0.6825 0.0000
vt 0.4919 0.6127 0.0000
vt 0.5891 0.6069 0.0000
vt 0.5891 0.4761 0.0000
vt 0.3922 0.4761 0.0000
vt 0.3922 0.6767 0.0000
vt 0.4861 0.6767 0.0000
vt 0.4861 0.6069 0.0000
vt 0.6514 0.5517 0.0000
vt 0.6514 0.6825 0.0000
vt 0.6458 0.6825 0.0000
vt 0.6458 0.5517 0.0000
vt 0.6326 0.4856 0.0000
vt 0.6326 0.6825 0.0000
vt 0.6270 0.6825 0.0000
vt 0.6270 0.4856 0.0000
vt 0.6138 0.4819 0.0000
vt 0.6138 0.6825 0.0000
vt 0.6082 0.6825 0.0000
vt 0.6082 0.4819 0.0000
vt 0.5139 0.4866 0.0000
vt 0.4200 0.4866 0.0000
vt 0.4200 0.4810 0.0000
vt 0.5139 0.4810 0.0000
vt 0.5949 0.6254 0.0000
vt 0.5251 0.6254 0.0000
vt 0.5251 0.6198 0.0000
vt 0.5949 0.6198 0.0000
vt 0.5843 0.4811 0.0000
vt 0.5843 0.5840 0.0000
vt 0.5787 0.5840 0.0000
vt 0.5787 0.4811 0.0000
vt 0.5716 0.9608 0.0000
vt 0.5183 0.9608 0.0000
vt 0.5183 0.8207 0.0000
vt 0.5716 0.8207 0.0000
vt 0.5056 0.9608 0.0000
vt 0.4523 0.9608 0.0000
vt 0.4523 0.7546 0.0000
vt 0.5056 0.7546 0.0000
vt 0.4397 0.9608 0.0000
vt 0.3864 0.9608 0.0000
vt 0.3864 0.7508 0.0000
vt 0.4397 0.7508 0.0000
vt 0.6376 0.9608 0.0000
vt 0.5843 0.9608 0.0000
vt 0.5843 0.8576 0.0000
vt 0.6376 0.8576 0.0000
vt 0.5716 0.8080 0.0000
vt 0.5183 0.8080 0.0000
vt 0.5183 0.7381 0.0000
vt 0.5716 0.7381 0.0000
vt 0.6376 0.8449 0.0000
vt 0.5843 0.8449 0.0000
vt 0.5843 0.7419 0.0000
vt 0.6376 0.7419 0.0000
# 192 texture coords

g building_34
usemtl 07___Default
s off
f 1/1/1 2/2/1 3/3/1 
f 3/3/1 4/4/1 1/1/1 
f 5/5/2 6/6/2 2/7/2 
f 2/7/2 1/8/2 5/5/2 
f 7/9/3 8/10/3 6/11/3 
f 6/11/3 5/12/3 7/9/3 
f 9/13/4 10/14/4 8/15/4 
f 8/15/4 7/16/4 9/13/4 
f 11/17/1 12/18/1 10/19/1 
f 10/19/1 9/20/1 11/17/1 
f 4/21/4 3/22/4 12/23/4 
f 12/23/4 11/24/4 4/21/4 
f 2/25/1 13/26/1 14/27/1 
f 14/27/1 3/28/1 2/25/1 
f 6/29/2 15/30/2 13/31/2 
f 13/31/2 2/32/2 6/29/2 
f 8/33/3 16/34/3 15/35/3 
f 15/35/3 6/36/3 8/33/3 
f 10/37/4 17/38/4 16/39/4 
f 16/39/4 8/40/4 10/37/4 
f 12/41/1 18/42/1 17/43/1 
f 17/43/1 10/44/1 12/41/1 
f 3/45/4 14/46/4 18/47/4 
f 18/47/4 12/48/4 3/45/4 
f 19/49/1 20/50/1 21/51/1 
f 21/51/1 22/52/1 19/49/1 
f 23/53/2 24/54/2 20/55/2 
f 20/55/2 19/56/2 23/53/2 
f 25/57/3 26/58/3 24/59/3 
f 24/59/3 23/60/3 25/57/3 
f 22/61/4 21/62/4 26/63/4 
f 26/63/4 25/64/4 22/61/4 
f 21/65/5 20/66/5 24/67/5 
f 24/67/5 26/68/5 21/65/5 
f 23/69/6 19/70/6 22/71/6 
f 22/71/6 25/72/6 23/69/6 
f 13/73/1 27/74/1 28/75/1 
f 28/75/1 14/76/1 13/73/1 
f 15/77/2 29/78/2 27/79/2 
f 27/79/2 13/80/2 15/77/2 
f 16/81/3 30/82/3 29/83/3 
f 29/83/3 15/84/3 16/81/3 
f 17/85/4 31/86/4 30/87/4 
f 30/87/4 16/88/4 17/85/4 
f 18/89/1 32/90/1 31/91/1 
f 31/91/1 17/92/1 18/89/1 
f 14/93/4 28/94/4 32/95/4 
f 32/95/4 18/96/4 14/93/4 
f 32/97/5 28/98/5 27/99/5 
f 32/97/5 27/99/5 29/100/5 
f 32/97/5 29/100/5 30/101/5 
f 32/97/5 30/101/5 31/102/5 
f 33/103/7 34/104/7 35/105/7 
f 35/105/7 36/106/7 33/103/7 
f 37/107/8 38/108/8 34/109/8 
f 34/109/8 33/110/8 37/107/8 
f 39/111/9 40/112/9 38/113/9 
f 38/113/9 37/114/9 39/111/9 
f 41/115/10 42/116/10 40/117/10 
f 40/117/10 39/118/10 41/115/10 
f 43/119/7 44/120/7 42/121/7 
f 42/121/7 41/122/7 43/119/7 
f 36/123/10 35/124/10 44/125/10 
f 44/125/10 43/126/10 36/123/10 
f 43/127/6 41/128/6 39/129/6 
f 43/127/6 39/129/6 37/130/6 
f 43/127/6 37/130/6 33/131/6 
f 43/127/6 33/131/6 36/132/6 
f 45/133/4 46/134/4 46/134/4 
f 46/134/4 45/133/4 45/133/4 
f 46/134/4 47/135/4 47/135/4 
f 47/135/4 46/134/4 46/134/4 
f 47/135/4 48/136/4 48/136/4 
f 48/136/4 47/135/4 47/135/4 
f 48/136/4 49/137/4 49/137/4 
f 49/137/4 48/136/4 48/136/4 
f 49/137/4 50/138/4 50/138/4 
f 50/138/4 49/137/4 49/137/4 
f 50/138/4 45/133/4 45/133/4 
f 45/133/4 50/138/4 50/138/4 
f 51/139/6 52/140/6 46/134/6 
f 46/134/6 45/133/6 51/139/6 
f 52/140/6 53/141/6 47/135/6 
f 47/135/6 46/134/6 52/140/6 
f 53/141/6 54/142/6 48/136/6 
f 48/136/6 47/135/6 53/141/6 
f 54/142/6 55/143/6 49/137/6 
f 49/137/6 48/136/6 54/142/6 
f 55/143/6 56/144/6 50/138/6 
f 50/138/6 49/137/6 55/143/6 
f 56/144/6 51/139/6 45/133/6 
f 45/133/6 50/138/6 56/144/6 
f 57/145/1 58/146/1 52/147/1 
f 52/147/1 51/148/1 57/145/1 
f 58/149/2 59/150/2 53/151/2 
f 53/151/2 52/152/2 58/149/2 
f 59/153/3 60/154/3 54/155/3 
f 54/155/3 53/156/3 59/153/3 
f 60/157/4 61/158/4 55/159/4 
f 55/159/4 54/160/4 60/157/4 
f 61/161/1 62/162/1 56/163/1 
f 56/163/1 55/164/1 61/161/1 
f 62/165/4 57/166/4 51/167/4 
f 51/167/4 56/168/4 62/165/4 
f 63/169/1 1/170/1 4/171/1 
f 4/171/1 64/172/1 63/169/1 
f 65/173/2 5/174/2 1/175/2 
f 1/175/2 63/176/2 65/173/2 
f 66/177/3 7/178/3 5/179/3 
f 5/179/3 65/180/3 66/177/3 
f 67/181/4 9/182/4 7/183/4 
f 7/183/4 66/184/4 67/181/4 
f 68/185/1 11/186/1 9/187/1 
f 9/187/1 67/188/1 68/185/1 
f 64/189/4 4/190/4 11/191/4 
f 11/191/4 68/192/4 64/189/4 
# 116 faces

