# 3ds Max Wavefront OBJ Exporter v0.97b - (c)2007 guruware
# File Created: 10.12.2016 02:28:29

mtllib building_6.mtl

#
# object building_6
#

v  304.6979 29.5276 -331.7732
v  304.6979 182.4147 -331.7732
v  304.6978 182.4147 -280.4914
v  304.6978 29.5276 -280.4914
v  253.3930 29.5276 -331.7732
v  253.3930 182.4147 -331.7732
v  253.3930 29.5276 -280.4914
v  253.3930 182.4147 -280.4914
v  294.6721 182.4147 -306.8528
v  294.6721 195.2147 -306.8528
v  294.6721 195.2147 -289.1710
v  294.6721 182.4147 -289.1710
v  276.9673 182.4147 -306.8528
v  276.9673 195.2147 -306.8528
v  276.9673 182.4147 -289.1710
v  276.9673 195.2147 -289.1710
v  304.6979 188.4147 -331.7732
v  304.6978 188.4147 -280.4914
v  253.3930 188.4147 -331.7732
v  253.3930 188.4147 -280.4914
v  305.4979 182.4147 -332.5732
v  305.4979 192.2572 -332.5732
v  305.4979 192.2572 -279.6914
v  305.4979 182.4147 -279.6914
v  252.5930 182.4147 -332.5732
v  252.5930 192.2572 -332.5732
v  252.5930 182.4147 -279.6914
v  252.5930 192.2572 -279.6914
v  303.4979 192.2572 -330.5732
v  303.4979 192.2572 -281.6914
v  254.5930 192.2572 -330.5732
v  254.5930 192.2572 -281.6914
v  303.4979 188.8572 -330.5732
v  303.4979 188.8572 -281.6914
v  254.5930 188.8572 -330.5732
v  254.5930 188.8572 -281.6914
v  304.6979 0.0000 -331.7732
v  304.6978 0.0000 -280.4914
v  253.3930 0.0000 -331.7732
v  253.3930 0.0000 -280.4914
# 40 vertices

vn 1.0000 0.0000 0.0000
vn 0.0000 0.0000 -1.0000
vn -1.0000 0.0000 -0.0000
vn -0.0000 0.0000 1.0000
vn 0.0000 1.0000 -0.0000
vn 0.0000 -1.0000 -0.0000
# 6 vertex normals

vt 0.5561 0.6070 0.0000
vt 0.5561 0.2115 0.0000
vt 0.6888 0.2115 0.0000
vt 0.6888 0.6070 0.0000
vt 0.0392 0.6070 0.0000
vt 0.0392 0.2115 0.0000
vt 0.1719 0.2115 0.0000
vt 0.1719 0.6070 0.0000
vt 0.3839 0.6070 0.0000
vt 0.3839 0.2115 0.0000
vt 0.5165 0.2115 0.0000
vt 0.5165 0.6070 0.0000
vt 0.2115 0.6070 0.0000
vt 0.2115 0.2115 0.0000
vt 0.3443 0.2115 0.0000
vt 0.3443 0.6070 0.0000
vt 0.2115 0.0392 0.0000
vt 0.3442 0.0392 0.0000
vt 0.3442 0.1719 0.0000
vt 0.2115 0.1719 0.0000
vt 0.1719 0.0392 0.0000
vt 0.1719 0.1719 0.0000
vt 0.0392 0.1719 0.0000
vt 0.0392 0.0392 0.0000
vt 0.8361 0.0868 0.0000
vt 0.8030 0.0868 0.0000
vt 0.8030 0.0411 0.0000
vt 0.8361 0.0411 0.0000
vt 0.8361 0.1380 0.0000
vt 0.8030 0.1380 0.0000
vt 0.8030 0.0922 0.0000
vt 0.8361 0.0922 0.0000
vt 0.8747 0.1380 0.0000
vt 0.8416 0.1380 0.0000
vt 0.8416 0.0923 0.0000
vt 0.8747 0.0923 0.0000
vt 0.7832 0.0850 0.0000
vt 0.7501 0.0850 0.0000
vt 0.7501 0.0392 0.0000
vt 0.7832 0.0392 0.0000
vt 0.7501 0.0922 0.0000
vt 0.7958 0.0922 0.0000
vt 0.7958 0.1380 0.0000
vt 0.7501 0.1380 0.0000
vt 0.6015 0.1930 0.0000
vt 0.5860 0.1930 0.0000
vt 0.5860 0.0603 0.0000
vt 0.6015 0.0603 0.0000
vt 0.5260 0.1930 0.0000
vt 0.5105 0.1930 0.0000
vt 0.5105 0.0603 0.0000
vt 0.5260 0.0603 0.0000
vt 0.5764 0.1930 0.0000
vt 0.5609 0.1930 0.0000
vt 0.5609 0.0603 0.0000
vt 0.5764 0.0603 0.0000
vt 0.5512 0.1930 0.0000
vt 0.5357 0.1930 0.0000
vt 0.5357 0.0603 0.0000
vt 0.5512 0.0603 0.0000
vt 0.3650 0.0603 0.0000
vt 0.4977 0.0603 0.0000
vt 0.4977 0.1930 0.0000
vt 0.3650 0.1930 0.0000
vt 0.5350 0.8957 0.0000
vt 0.5350 0.9212 0.0000
vt 0.3982 0.9212 0.0000
vt 0.3982 0.8957 0.0000
vt 0.5350 0.7796 0.0000
vt 0.5350 0.8051 0.0000
vt 0.3981 0.8051 0.0000
vt 0.3981 0.7796 0.0000
vt 0.5350 0.7400 0.0000
vt 0.5350 0.7655 0.0000
vt 0.3982 0.7655 0.0000
vt 0.3982 0.7400 0.0000
vt 0.5350 0.9353 0.0000
vt 0.5350 0.9608 0.0000
vt 0.3981 0.9608 0.0000
vt 0.3981 0.9353 0.0000
vt 0.5539 0.8240 0.0000
vt 0.5590 0.8292 0.0000
vt 0.5590 0.9556 0.0000
vt 0.5539 0.9608 0.0000
vt 0.6907 0.8240 0.0000
vt 0.6856 0.8292 0.0000
vt 0.6907 0.9608 0.0000
vt 0.6856 0.9556 0.0000
vt 0.4085 0.8585 0.0000
vt 0.4085 0.8498 0.0000
vt 0.5350 0.8498 0.0000
vt 0.5350 0.8585 0.0000
vt 0.4084 0.7258 0.0000
vt 0.4084 0.7170 0.0000
vt 0.5350 0.7170 0.0000
vt 0.5350 0.7258 0.0000
vt 0.4085 0.7028 0.0000
vt 0.4085 0.6941 0.0000
vt 0.5350 0.6941 0.0000
vt 0.5350 0.7028 0.0000
vt 0.4084 0.8815 0.0000
vt 0.4084 0.8727 0.0000
vt 0.5350 0.8727 0.0000
vt 0.5350 0.8815 0.0000
vt 0.5539 0.6683 0.0000
vt 0.6907 0.6683 0.0000
vt 0.6907 0.8051 0.0000
vt 0.5539 0.8051 0.0000
vt 0.0392 0.6739 0.0000
vt 0.1156 0.6739 0.0000
vt 0.1156 0.8065 0.0000
vt 0.0392 0.8065 0.0000
vt 0.1266 0.8175 0.0000
vt 0.2030 0.8175 0.0000
vt 0.2030 0.9503 0.0000
vt 0.1266 0.9503 0.0000
vt 0.0392 0.8176 0.0000
vt 0.1156 0.8176 0.0000
vt 0.1156 0.9503 0.0000
vt 0.0392 0.9503 0.0000
vt 0.1266 0.6738 0.0000
vt 0.2030 0.6738 0.0000
vt 0.2030 0.8065 0.0000
vt 0.1266 0.8065 0.0000
vt 0.3522 0.8010 0.0000
vt 0.2195 0.8010 0.0000
vt 0.2195 0.6683 0.0000
vt 0.3522 0.6683 0.0000
vt 0.2195 0.9503 0.0000
vt 0.2195 0.8175 0.0000
vt 0.3522 0.8175 0.0000
vt 0.3522 0.9503 0.0000
# 132 texture coords

g building_6
usemtl 09___Default
s off
f 1/1/1 2/2/1 3/3/1 
f 3/3/1 4/4/1 1/1/1 
f 5/5/2 6/6/2 2/7/2 
f 2/7/2 1/8/2 5/5/2 
f 7/9/3 8/10/3 6/11/3 
f 6/11/3 5/12/3 7/9/3 
f 4/13/4 3/14/4 8/15/4 
f 8/15/4 7/16/4 4/13/4 
f 3/17/5 2/18/5 6/19/5 
f 6/19/5 8/20/5 3/17/5 
f 5/21/6 1/22/6 4/23/6 
f 4/23/6 7/24/6 5/21/6 
f 9/25/1 10/26/1 11/27/1 
f 11/27/1 12/28/1 9/25/1 
f 13/29/2 14/30/2 10/31/2 
f 10/31/2 9/32/2 13/29/2 
f 15/33/3 16/34/3 14/35/3 
f 14/35/3 13/36/3 15/33/3 
f 12/37/4 11/38/4 16/39/4 
f 16/39/4 15/40/4 12/37/4 
f 11/41/5 10/42/5 14/43/5 
f 14/43/5 16/44/5 11/41/5 
f 2/45/1 17/46/1 18/47/1 
f 18/47/1 3/48/1 2/45/1 
f 6/49/2 19/50/2 17/51/2 
f 17/51/2 2/52/2 6/49/2 
f 8/53/3 20/54/3 19/55/3 
f 19/55/3 6/56/3 8/53/3 
f 3/57/4 18/58/4 20/59/4 
f 20/59/4 8/60/4 3/57/4 
f 18/61/5 17/62/5 19/63/5 
f 19/63/5 20/64/5 18/61/5 
f 21/65/1 22/66/1 23/67/1 
f 23/67/1 24/68/1 21/65/1 
f 25/69/2 26/70/2 22/71/2 
f 22/71/2 21/72/2 25/69/2 
f 27/73/3 28/74/3 26/75/3 
f 26/75/3 25/76/3 27/73/3 
f 24/77/4 23/78/4 28/79/4 
f 28/79/4 27/80/4 24/77/4 
f 22/81/5 29/82/5 30/83/5 
f 30/83/5 23/84/5 22/81/5 
f 26/85/5 31/86/5 29/82/5 
f 29/82/5 22/81/5 26/85/5 
f 28/87/5 32/88/5 31/86/5 
f 31/86/5 26/85/5 28/87/5 
f 23/84/5 30/83/5 32/88/5 
f 32/88/5 28/87/5 23/84/5 
f 29/89/3 33/90/3 34/91/3 
f 34/91/3 30/92/3 29/89/3 
f 31/93/4 35/94/4 33/95/4 
f 33/95/4 29/96/4 31/93/4 
f 32/97/1 36/98/1 35/99/1 
f 35/99/1 31/100/1 32/97/1 
f 30/101/2 34/102/2 36/103/2 
f 36/103/2 32/104/2 30/101/2 
f 25/105/6 21/106/6 24/107/6 
f 24/107/6 27/108/6 25/105/6 
f 37/109/1 1/110/1 4/111/1 
f 4/111/1 38/112/1 37/109/1 
f 39/113/2 5/114/2 1/115/2 
f 1/115/2 37/116/2 39/113/2 
f 40/117/3 7/118/3 5/119/3 
f 5/119/3 39/120/3 40/117/3 
f 38/121/4 4/122/4 7/123/4 
f 7/123/4 40/124/4 38/121/4 
f 4/125/5 1/126/5 5/127/5 
f 5/127/5 7/128/5 4/125/5 
f 39/129/6 37/130/6 38/131/6 
f 38/131/6 40/132/6 39/129/6 
# 70 faces

