# 3ds Max Wavefront OBJ Exporter v0.97b - (c)2007 guruware
# File Created: 10.12.2016 02:28:27

mtllib building_30.mtl

#
# object building_30
#

v  -199.6332 15.0918 -47.3867
v  -199.6332 35.5643 -47.3867
v  -199.6332 35.5643 -105.3837
v  -199.6332 15.0918 -105.3837
v  -132.4862 15.0918 -47.3867
v  -132.4862 35.5643 -47.3867
v  -132.4862 15.0918 -105.3836
v  -132.4862 35.5643 -105.3836
v  -199.6332 44.7112 -47.3867
v  -199.6332 44.7112 -105.3837
v  -132.4862 44.7112 -47.3867
v  -132.4862 44.7112 -105.3836
v  -183.9766 44.7112 -79.2276
v  -183.9766 51.9291 -79.2276
v  -183.9766 51.9291 -92.8245
v  -183.9766 44.7112 -92.8245
v  -161.2296 44.7112 -79.2276
v  -161.2296 51.9291 -79.2276
v  -161.2296 44.7112 -92.8245
v  -161.2296 51.9291 -92.8245
v  -199.6332 45.7112 -47.3867
v  -199.6332 45.7112 -105.3837
v  -132.4862 45.7112 -47.3867
v  -132.4862 45.7112 -105.3836
v  -199.8333 44.7112 -47.1867
v  -200.1613 46.8372 -46.8587
v  -200.1613 46.8372 -105.9117
v  -199.8332 44.7112 -105.5836
v  -132.2862 44.7112 -47.1867
v  -131.9581 46.8372 -46.8586
v  -132.2862 44.7112 -105.5836
v  -131.9581 46.8372 -105.9117
v  -199.9613 46.8372 -105.7117
v  -199.9613 46.8372 -47.0587
v  -132.1581 46.8372 -47.0586
v  -132.1581 46.8372 -105.7117
v  -198.3209 46.8372 -104.0713
v  -198.3209 46.8372 -48.6991
v  -133.7985 46.8372 -48.6991
v  -133.7985 46.8372 -104.0713
v  -198.3209 45.2624 -104.0713
v  -198.3209 45.2624 -48.6991
v  -133.7985 45.2624 -48.6991
v  -133.7985 45.2624 -104.0713
v  -199.6332 -0.0000 -47.3867
v  -199.6332 -0.0000 -105.3837
v  -132.4862 -0.0000 -47.3867
v  -132.4862 -0.0000 -105.3836
# 48 vertices

vn -1.0000 0.0000 -0.0000
vn -0.0000 0.0000 1.0000
vn 1.0000 0.0000 0.0000
vn 0.0000 0.0000 -1.0000
vn 0.0000 1.0000 -0.0000
vn 0.0000 -1.0000 -0.0000
vn -0.9883 -0.1525 -0.0000
vn -0.0000 -0.1525 0.9883
vn 0.9883 -0.1525 0.0000
vn 0.0000 -0.1525 -0.9883
vn 0.0000 0.0000 -0.0000
# 11 vertex normals

vt 0.4156 0.3057 0.0000
vt 0.3343 0.3057 0.0000
vt 0.3343 0.0755 0.0000
vt 0.4156 0.0755 0.0000
vt 0.1205 0.3057 0.0000
vt 0.0392 0.3057 0.0000
vt 0.0392 0.0392 0.0000
vt 0.1205 0.0392 0.0000
vt 0.3172 0.3057 0.0000
vt 0.2360 0.3057 0.0000
vt 0.2360 0.0755 0.0000
vt 0.3172 0.0755 0.0000
vt 0.2188 0.3057 0.0000
vt 0.1376 0.3057 0.0000
vt 0.1376 0.0392 0.0000
vt 0.2188 0.0392 0.0000
vt 0.6974 0.6859 0.0000
vt 0.6974 0.7222 0.0000
vt 0.4672 0.7222 0.0000
vt 0.4672 0.6859 0.0000
vt 0.6974 0.8291 0.0000
vt 0.6974 0.8654 0.0000
vt 0.4308 0.8654 0.0000
vt 0.4308 0.8291 0.0000
vt 0.6974 0.7336 0.0000
vt 0.6974 0.7699 0.0000
vt 0.4672 0.7699 0.0000
vt 0.4672 0.7336 0.0000
vt 0.6974 0.7814 0.0000
vt 0.6974 0.8177 0.0000
vt 0.4308 0.8177 0.0000
vt 0.4308 0.7814 0.0000
vt 0.8590 0.4273 0.0000
vt 0.8590 0.4559 0.0000
vt 0.8050 0.4559 0.0000
vt 0.8050 0.4273 0.0000
vt 0.9600 0.3625 0.0000
vt 0.9600 0.3912 0.0000
vt 0.8698 0.3912 0.0000
vt 0.8698 0.3625 0.0000
vt 0.8590 0.4920 0.0000
vt 0.8590 0.5207 0.0000
vt 0.8050 0.5207 0.0000
vt 0.8050 0.4920 0.0000
vt 0.8616 0.3625 0.0000
vt 0.8616 0.3912 0.0000
vt 0.7713 0.3912 0.0000
vt 0.7713 0.3625 0.0000
vt 0.8698 0.4559 0.0000
vt 0.8698 0.4020 0.0000
vt 0.9600 0.4020 0.0000
vt 0.9600 0.4559 0.0000
vt 0.8698 0.4667 0.0000
vt 0.9600 0.4667 0.0000
vt 0.9600 0.5207 0.0000
vt 0.8698 0.5207 0.0000
vt 0.7851 0.3057 0.0000
vt 0.7811 0.3057 0.0000
vt 0.7811 0.0755 0.0000
vt 0.7851 0.0755 0.0000
vt 0.7271 0.3057 0.0000
vt 0.7232 0.3057 0.0000
vt 0.7232 0.0392 0.0000
vt 0.7271 0.0392 0.0000
vt 0.7658 0.3057 0.0000
vt 0.7618 0.3057 0.0000
vt 0.7618 0.0755 0.0000
vt 0.7658 0.0755 0.0000
vt 0.7464 0.3057 0.0000
vt 0.7425 0.3057 0.0000
vt 0.7425 0.0392 0.0000
vt 0.7464 0.0392 0.0000
vt 0.4724 0.0392 0.0000
vt 0.7026 0.0392 0.0000
vt 0.7026 0.3057 0.0000
vt 0.4724 0.3057 0.0000
vt 0.3740 0.6335 0.0000
vt 0.3656 0.6348 0.0000
vt 0.3656 0.3990 0.0000
vt 0.3740 0.4003 0.0000
vt 0.3008 0.6336 0.0000
vt 0.2923 0.6349 0.0000
vt 0.2923 0.3625 0.0000
vt 0.3008 0.3639 0.0000
vt 0.3496 0.6335 0.0000
vt 0.3412 0.6348 0.0000
vt 0.3412 0.3990 0.0000
vt 0.3496 0.4003 0.0000
vt 0.3252 0.6336 0.0000
vt 0.3167 0.6349 0.0000
vt 0.3167 0.3625 0.0000
vt 0.3252 0.3639 0.0000
vt 0.2710 0.3659 0.0000
vt 0.2710 0.6341 0.0000
vt 0.0392 0.6341 0.0000
vt 0.0392 0.3659 0.0000
vt 0.0392 0.9608 0.0000
vt 0.2720 0.9608 0.0000
vt 0.2720 0.6917 0.0000
vt 0.0392 0.6917 0.0000
vt 0.0457 0.9543 0.0000
vt 0.2655 0.9543 0.0000
vt 0.2655 0.6982 0.0000
vt 0.0457 0.6982 0.0000
vt 0.2401 0.9443 0.0000
vt 0.2401 0.7245 0.0000
vt 0.2463 0.7245 0.0000
vt 0.2463 0.9443 0.0000
vt 0.2993 0.7047 0.0000
vt 0.2993 0.9608 0.0000
vt 0.2931 0.9608 0.0000
vt 0.2931 0.7047 0.0000
vt 0.2516 0.9443 0.0000
vt 0.2516 0.7245 0.0000
vt 0.2578 0.7245 0.0000
vt 0.2578 0.9443 0.0000
vt 0.3213 0.7047 0.0000
vt 0.3213 0.9608 0.0000
vt 0.3151 0.9608 0.0000
vt 0.3151 0.7047 0.0000
vt 0.7145 0.6291 0.0000
vt 0.6546 0.6291 0.0000
vt 0.6546 0.3989 0.0000
vt 0.7145 0.3989 0.0000
vt 0.4908 0.6291 0.0000
vt 0.4308 0.6291 0.0000
vt 0.4308 0.3625 0.0000
vt 0.4908 0.3625 0.0000
vt 0.6399 0.6291 0.0000
vt 0.5800 0.6291 0.0000
vt 0.5800 0.3989 0.0000
vt 0.6399 0.3989 0.0000
vt 0.5653 0.6291 0.0000
vt 0.5054 0.6291 0.0000
vt 0.5054 0.3625 0.0000
vt 0.5653 0.3625 0.0000
# 136 texture coords

g building_30
usemtl 03___Default
s off
f 1/1/1 2/2/1 3/3/1 
f 3/3/1 4/4/1 1/1/1 
f 5/5/2 6/6/2 2/7/2 
f 2/7/2 1/8/2 5/5/2 
f 7/9/3 8/10/3 6/11/3 
f 6/11/3 5/12/3 7/9/3 
f 4/13/4 3/14/4 8/15/4 
f 8/15/4 7/16/4 4/13/4 
f 2/17/1 9/18/1 10/19/1 
f 10/19/1 3/20/1 2/17/1 
f 6/21/2 11/22/2 9/23/2 
f 9/23/2 2/24/2 6/21/2 
f 8/25/3 12/26/3 11/27/3 
f 11/27/3 6/28/3 8/25/3 
f 3/29/4 10/30/4 12/31/4 
f 12/31/4 8/32/4 3/29/4 
f 13/33/1 14/34/1 15/35/1 
f 15/35/1 16/36/1 13/33/1 
f 17/37/2 18/38/2 14/39/2 
f 14/39/2 13/40/2 17/37/2 
f 19/41/3 20/42/3 18/43/3 
f 18/43/3 17/44/3 19/41/3 
f 16/45/4 15/46/4 20/47/4 
f 20/47/4 19/48/4 16/45/4 
f 15/49/5 14/50/5 18/51/5 
f 18/51/5 20/52/5 15/49/5 
f 17/53/6 13/54/6 16/55/6 
f 16/55/6 19/56/6 17/53/6 
f 9/57/1 21/58/1 22/59/1 
f 22/59/1 10/60/1 9/57/1 
f 11/61/2 23/62/2 21/63/2 
f 21/63/2 9/64/2 11/61/2 
f 12/65/3 24/66/3 23/67/3 
f 23/67/3 11/68/3 12/65/3 
f 10/69/4 22/70/4 24/71/4 
f 24/71/4 12/72/4 10/69/4 
f 22/73/5 21/74/5 23/75/5 
f 23/75/5 24/76/5 22/73/5 
f 25/77/7 26/78/7 27/79/7 
f 27/79/7 28/80/7 25/77/7 
f 29/81/8 30/82/8 26/83/8 
f 26/83/8 25/84/8 29/81/8 
f 31/85/9 32/86/9 30/87/9 
f 30/87/9 29/88/9 31/85/9 
f 28/89/10 27/90/10 32/91/10 
f 32/91/10 31/92/10 28/89/10 
f 29/93/6 25/94/6 28/95/6 
f 28/95/6 31/96/6 29/93/6 
f 33/97/11 34/98/11 34/98/11 
f 34/98/11 33/97/11 33/97/11 
f 34/98/11 35/99/11 35/99/11 
f 35/99/11 34/98/11 34/98/11 
f 35/99/11 36/100/11 36/100/11 
f 36/100/11 35/99/11 35/99/11 
f 36/100/11 33/97/11 33/97/11 
f 33/97/11 36/100/11 36/100/11 
f 37/101/6 38/102/6 34/98/6 
f 34/98/6 33/97/6 37/101/6 
f 38/102/6 39/103/6 35/99/6 
f 35/99/6 34/98/6 38/102/6 
f 39/103/6 40/104/6 36/100/6 
f 36/100/6 35/99/6 39/103/6 
f 40/104/6 37/101/6 33/97/6 
f 33/97/6 36/100/6 40/104/6 
f 41/105/1 42/106/1 38/107/1 
f 38/107/1 37/108/1 41/105/1 
f 42/109/2 43/110/2 39/111/2 
f 39/111/2 38/112/2 42/109/2 
f 43/113/3 44/114/3 40/115/3 
f 40/115/3 39/116/3 43/113/3 
f 44/117/4 41/118/4 37/119/4 
f 37/119/4 40/120/4 44/117/4 
f 45/121/1 1/122/1 4/123/1 
f 4/123/1 46/124/1 45/121/1 
f 47/125/2 5/126/2 1/127/2 
f 1/127/2 45/128/2 47/125/2 
f 48/129/3 7/130/3 5/131/3 
f 5/131/3 47/132/3 48/129/3 
f 46/133/4 4/134/4 7/135/4 
f 7/135/4 48/136/4 46/133/4 
# 80 faces

